<svg width="48" height="48" viewBox="0 0 48 48" fill="none" xmlns="http://www.w3.org/2000/svg">
    <path d="M24 45C21.4 42.7 18.5583 40.9333 15.475 39.7C12.3917 38.4667 9.23333 37.85 6 37.85V16.4C9.13333 16.4 12.2417 17.1167 15.325 18.55C18.4083 19.9833 21.3 21.9833 24 24.55C26.7 21.9833 29.5917 19.9833 32.675 18.55C35.7583 17.1167 38.8667 16.4 42 16.4V37.85C38.7667 37.85 35.6083 38.4667 32.525 39.7C29.4417 40.9333 26.6 42.7 24 45ZM24 41.15C26.3667 39.45 28.8083 38.0917 31.325 37.075C33.8417 36.0583 36.4 35.4167 39 35.15V19.65C36.7333 20.0167 34.3417 20.925 31.825 22.375C29.3083 23.825 26.7 25.8333 24 28.4C21.0667 25.7 18.4 23.65 16 22.25C13.6 20.85 11.2667 19.9833 9 19.65V35.15C11.6 35.4167 14.1583 36.0583 16.675 37.075C19.1917 38.0917 21.6333 39.45 24 41.15ZM24.15 17.4C21.9833 17.4 20.1583 16.6583 18.675 15.175C17.1917 13.6917 16.45 11.8667 16.45 9.7C16.45 7.53333 17.1917 5.70833 18.675 4.225C20.1583 2.74167 21.9833 2 24.15 2C26.3167 2 28.1417 2.74167 29.625 4.225C31.1083 5.70833 31.85 7.53333 31.85 9.7C31.85 11.8667 31.1083 13.6917 29.625 15.175C28.1417 16.6583 26.3167 17.4 24.15 17.4ZM24.158 14.4C25.4527 14.4 26.5583 13.939 27.475 13.017C28.3917 12.095 28.85 10.9867 28.85 9.692C28.85 8.39733 28.389 7.29167 27.467 6.375C26.545 5.45833 25.4367 5 24.142 5C22.8473 5 21.7417 5.461 20.825 6.383C19.9083 7.305 19.45 8.41333 19.45 9.708C19.45 11.0027 19.911 12.1083 20.833 13.025C21.755 13.9417 22.8633 14.4 24.158 14.4Z" fill="black"/>
</svg>
