<svg width="122" height="48" viewBox="0 0 122 48" fill="none" xmlns="http://www.w3.org/2000/svg">
    <path d="M49.2642 26V11.4545H55.0881C56.1581 11.4545 57.0507 11.6132 57.7656 11.9304C58.4806 12.2476 59.018 12.688 59.3778 13.2514C59.7377 13.8101 59.9176 14.4541 59.9176 15.1832C59.9176 15.7514 59.804 16.2509 59.5767 16.6818C59.3494 17.108 59.0369 17.4583 58.6392 17.733C58.2462 18.0028 57.7964 18.1946 57.2898 18.3082V18.4503C57.8438 18.474 58.3622 18.6302 58.8452 18.919C59.3329 19.2079 59.7282 19.6127 60.0312 20.1335C60.3343 20.6496 60.4858 21.2652 60.4858 21.9801C60.4858 22.7519 60.294 23.4408 59.9105 24.0469C59.5317 24.6482 58.9706 25.1241 58.2273 25.4744C57.4839 25.8248 56.5677 26 55.4787 26H49.2642ZM52.3395 23.4858H54.8466C55.7036 23.4858 56.3286 23.3224 56.7216 22.9957C57.1146 22.6643 57.3111 22.224 57.3111 21.6747C57.3111 21.2723 57.214 20.9171 57.0199 20.6094C56.8258 20.3016 56.5488 20.0601 56.1889 19.8849C55.8338 19.7098 55.41 19.6222 54.9176 19.6222H52.3395V23.4858ZM52.3395 17.5412H54.6193C55.0407 17.5412 55.4148 17.4678 55.7415 17.321C56.0729 17.1695 56.3333 16.9564 56.5227 16.6818C56.7169 16.4072 56.8139 16.0781 56.8139 15.6946C56.8139 15.169 56.6269 14.7453 56.2528 14.4233C55.8835 14.1013 55.358 13.9403 54.6761 13.9403H52.3395V17.5412ZM67.359 26.2131C66.2558 26.2131 65.3017 25.9787 64.4968 25.5099C63.6966 25.0365 63.0787 24.3783 62.6431 23.5355C62.2075 22.688 61.9897 21.7055 61.9897 20.5881C61.9897 19.4612 62.2075 18.4763 62.6431 17.6335C63.0787 16.786 63.6966 16.1278 64.4968 15.6591C65.3017 15.1856 66.2558 14.9489 67.359 14.9489C68.4622 14.9489 69.4139 15.1856 70.2141 15.6591C71.0191 16.1278 71.6393 16.786 72.0749 17.6335C72.5105 18.4763 72.7283 19.4612 72.7283 20.5881C72.7283 21.7055 72.5105 22.688 72.0749 23.5355C71.6393 24.3783 71.0191 25.0365 70.2141 25.5099C69.4139 25.9787 68.4622 26.2131 67.359 26.2131ZM67.3732 23.8693C67.8751 23.8693 68.2942 23.7273 68.6303 23.4432C68.9665 23.1544 69.2198 22.7614 69.3903 22.2642C69.5655 21.767 69.6531 21.2012 69.6531 20.5668C69.6531 19.9323 69.5655 19.3665 69.3903 18.8693C69.2198 18.3722 68.9665 17.9792 68.6303 17.6903C68.2942 17.4015 67.8751 17.2571 67.3732 17.2571C66.8666 17.2571 66.4405 17.4015 66.0948 17.6903C65.7539 17.9792 65.4959 18.3722 65.3207 18.8693C65.1502 19.3665 65.065 19.9323 65.065 20.5668C65.065 21.2012 65.1502 21.767 65.3207 22.2642C65.4959 22.7614 65.7539 23.1544 66.0948 23.4432C66.4405 23.7273 66.8666 23.8693 67.3732 23.8693ZM79.6246 26.2131C78.5214 26.2131 77.5674 25.9787 76.7624 25.5099C75.9622 25.0365 75.3443 24.3783 74.9087 23.5355C74.4731 22.688 74.2553 21.7055 74.2553 20.5881C74.2553 19.4612 74.4731 18.4763 74.9087 17.6335C75.3443 16.786 75.9622 16.1278 76.7624 15.6591C77.5674 15.1856 78.5214 14.9489 79.6246 14.9489C80.7279 14.9489 81.6796 15.1856 82.4798 15.6591C83.2847 16.1278 83.9049 16.786 84.3406 17.6335C84.7762 18.4763 84.994 19.4612 84.994 20.5881C84.994 21.7055 84.7762 22.688 84.3406 23.5355C83.9049 24.3783 83.2847 25.0365 82.4798 25.5099C81.6796 25.9787 80.7279 26.2131 79.6246 26.2131ZM79.6388 23.8693C80.1407 23.8693 80.5598 23.7273 80.896 23.4432C81.2321 23.1544 81.4854 22.7614 81.6559 22.2642C81.8311 21.767 81.9187 21.2012 81.9187 20.5668C81.9187 19.9323 81.8311 19.3665 81.6559 18.8693C81.4854 18.3722 81.2321 17.9792 80.896 17.6903C80.5598 17.4015 80.1407 17.2571 79.6388 17.2571C79.1322 17.2571 78.7061 17.4015 78.3604 17.6903C78.0195 17.9792 77.7615 18.3722 77.5863 18.8693C77.4158 19.3665 77.3306 19.9323 77.3306 20.5668C77.3306 21.2012 77.4158 21.767 77.5863 22.2642C77.7615 22.7614 78.0195 23.1544 78.3604 23.4432C78.7061 23.7273 79.1322 23.8693 79.6388 23.8693ZM89.7028 22.8608L89.7099 19.2315H90.1502L93.6445 15.0909H97.1175L92.4229 20.5739H91.7056L89.7028 22.8608ZM86.9613 26V11.4545H89.9869V26H86.9613ZM93.7795 26L90.5692 21.2486L92.5863 19.1108L97.3235 26H93.7795ZM101.627 11.4545V26H98.6019V11.4545H101.627ZM109.023 26.2131C107.901 26.2131 106.935 25.9858 106.125 25.5312C105.32 25.072 104.7 24.4233 104.264 23.5852C103.829 22.7424 103.611 21.7457 103.611 20.5952C103.611 19.473 103.829 18.4882 104.264 17.6406C104.7 16.7931 105.313 16.1326 106.104 15.6591C106.899 15.1856 107.832 14.9489 108.902 14.9489C109.622 14.9489 110.292 15.0649 110.912 15.2969C111.537 15.5241 112.081 15.8674 112.545 16.3267C113.014 16.786 113.379 17.3636 113.639 18.0597C113.9 18.7509 114.03 19.5606 114.03 20.4886V21.3196H104.818V19.4446H111.182C111.182 19.009 111.087 18.6231 110.898 18.2869C110.708 17.9508 110.446 17.688 110.109 17.4986C109.778 17.3045 109.392 17.2074 108.952 17.2074C108.492 17.2074 108.085 17.3139 107.73 17.527C107.38 17.7353 107.105 18.017 106.906 18.3722C106.707 18.7225 106.606 19.1132 106.601 19.544V21.3267C106.601 21.8665 106.7 22.3329 106.899 22.7259C107.103 23.1188 107.389 23.4219 107.759 23.6349C108.128 23.848 108.566 23.9545 109.072 23.9545C109.409 23.9545 109.716 23.9072 109.996 23.8125C110.275 23.7178 110.514 23.5758 110.713 23.3864C110.912 23.197 111.063 22.965 111.168 22.6903L113.966 22.875C113.824 23.5473 113.533 24.1345 113.092 24.6364C112.657 25.1335 112.093 25.5218 111.402 25.8011C110.715 26.0758 109.922 26.2131 109.023 26.2131ZM121.807 15.0909V17.3636H115.237V15.0909H121.807ZM116.729 12.4773H119.754V22.6477C119.754 22.9271 119.797 23.1449 119.882 23.3011C119.967 23.4527 120.086 23.5592 120.237 23.6207C120.393 23.6823 120.573 23.7131 120.777 23.7131C120.919 23.7131 121.061 23.7012 121.203 23.6776C121.345 23.6491 121.454 23.6278 121.53 23.6136L122.006 25.8651C121.854 25.9124 121.641 25.9669 121.366 26.0284C121.092 26.0947 120.758 26.1349 120.365 26.1491C119.636 26.1776 118.997 26.0805 118.447 25.858C117.903 25.6354 117.479 25.2898 117.176 24.821C116.873 24.3523 116.724 23.7604 116.729 23.0455V12.4773ZM49.9808 35.9759L49.9666 35.0419H50.1229L52.5945 32.5455H53.5142L50.9822 35.0952L50.9183 35.0987L49.9808 35.9759ZM49.299 38V30.7273H50.0376V38H49.299ZM52.733 38L50.5597 35.2479L51.0852 34.7401L53.6705 38H52.733ZM56.5859 38.1136C56.1054 38.1136 55.6816 37.9953 55.3146 37.7585C54.95 37.5218 54.6648 37.1927 54.4588 36.7713C54.2528 36.3475 54.1499 35.8563 54.1499 35.2976C54.1499 34.7365 54.2528 34.2441 54.4588 33.8203C54.6648 33.3942 54.95 33.0627 55.3146 32.826C55.6816 32.5893 56.1054 32.4709 56.5859 32.4709C57.0665 32.4709 57.4891 32.5893 57.8537 32.826C58.2206 33.0627 58.5071 33.3942 58.7131 33.8203C58.919 34.2441 59.022 34.7365 59.022 35.2976C59.022 35.8563 58.919 36.3475 58.7131 36.7713C58.5071 37.1927 58.2206 37.5218 57.8537 37.7585C57.4891 37.9953 57.0665 38.1136 56.5859 38.1136ZM56.5859 37.4496C56.9624 37.4496 57.276 37.3513 57.527 37.1548C57.7803 36.956 57.9697 36.6932 58.0952 36.3665C58.223 36.0398 58.2869 35.6835 58.2869 35.2976C58.2869 34.9117 58.223 34.5554 58.0952 34.2287C57.9697 33.8996 57.7803 33.6357 57.527 33.4368C57.276 33.2379 56.9624 33.1385 56.5859 33.1385C56.2095 33.1385 55.8946 33.2379 55.6413 33.4368C55.3904 33.6357 55.201 33.8996 55.0732 34.2287C54.9477 34.5554 54.8849 34.9117 54.8849 35.2976C54.8849 35.6835 54.9477 36.0398 55.0732 36.3665C55.201 36.6932 55.3904 36.956 55.6413 37.1548C55.8946 37.3513 56.2095 37.4496 56.5859 37.4496ZM55.62 31.6222C55.4851 31.6222 55.3655 31.5713 55.2614 31.4695C55.1596 31.3653 55.1087 31.2457 55.1087 31.1108C55.1087 30.964 55.1596 30.8421 55.2614 30.745C55.3655 30.648 55.4851 30.5994 55.62 30.5994C55.7668 30.5994 55.8887 30.648 55.9858 30.745C56.0829 30.8421 56.1314 30.964 56.1314 31.1108C56.1314 31.2457 56.0829 31.3653 55.9858 31.4695C55.8887 31.5713 55.7668 31.6222 55.62 31.6222ZM57.5518 31.6222C57.4169 31.6222 57.2973 31.5713 57.1932 31.4695C57.0914 31.3653 57.0405 31.2457 57.0405 31.1108C57.0405 30.964 57.0914 30.8421 57.1932 30.745C57.2973 30.648 57.4169 30.5994 57.5518 30.5994C57.6986 30.5994 57.8205 30.648 57.9176 30.745C58.0147 30.8421 58.0632 30.964 58.0632 31.1108C58.0632 31.2457 58.0147 31.3653 57.9176 31.4695C57.8205 31.5713 57.6986 31.6222 57.5518 31.6222ZM61.0923 34.6548V38H60.3537V32.5455H61.0675V33.4013H61.1314C61.2592 33.1219 61.4557 32.8982 61.7209 32.7301C61.986 32.5597 62.3222 32.4744 62.7294 32.4744C63.0987 32.4744 63.4219 32.5502 63.6989 32.7017C63.9759 32.8532 64.1913 33.0793 64.3452 33.38C64.5014 33.6806 64.5795 34.0547 64.5795 34.5021V38H63.8409V34.5483C63.8409 34.1103 63.7225 33.7659 63.4858 33.5149C63.2514 33.264 62.9318 33.1385 62.527 33.1385C62.25 33.1385 62.0038 33.1989 61.7884 33.3196C61.5729 33.4403 61.4025 33.6143 61.277 33.8416C61.1539 34.0665 61.0923 34.3376 61.0923 34.6548ZM66.4723 40.0455C66.3374 40.0455 66.2143 40.0336 66.103 40.0099C65.9941 39.9886 65.9136 39.965 65.8615 39.9389L66.0533 39.2891C66.2616 39.3506 66.4463 39.3731 66.6072 39.3565C66.7706 39.34 66.915 39.2666 67.0405 39.1364C67.1683 39.0085 67.282 38.8061 67.3814 38.5291L67.5625 38.0391L65.549 32.5455H66.348L67.9105 37.0305H67.9602L69.5227 32.5455H70.3217L68.0099 38.8274C67.9105 39.102 67.7862 39.3293 67.6371 39.5092C67.4879 39.6892 67.3163 39.8229 67.1222 39.9105C66.928 40.0005 66.7114 40.0455 66.4723 40.0455ZM75.8295 32.5455L73.8232 38H73.0632L71.0568 32.5455H71.8558L73.4183 37.0305H73.468L75.0305 32.5455H75.8295ZM78.3944 38.1243C78.0558 38.1243 77.748 38.0604 77.4711 37.9325C77.1964 37.8023 76.9763 37.6129 76.8105 37.3643C76.6472 37.1158 76.5655 36.8151 76.5655 36.4624C76.5655 36.1712 76.6212 35.9309 76.7324 35.7415C76.8461 35.5521 77.0011 35.4006 77.1976 35.2869C77.3941 35.1709 77.619 35.0821 77.8723 35.0206C78.1257 34.959 78.3932 34.9093 78.6749 34.8714C78.9921 34.8312 79.2549 34.7992 79.4632 34.7756C79.6739 34.7495 79.8302 34.7081 79.932 34.6513C80.0362 34.5921 80.0882 34.495 80.0882 34.3601V34.282C80.0882 33.9197 79.9853 33.6368 79.7793 33.4332C79.5733 33.2273 79.2715 33.1243 78.8738 33.1243C78.476 33.1243 78.1576 33.2119 77.9185 33.3871C77.6818 33.5599 77.516 33.7552 77.4213 33.973L76.7218 33.7209C76.8543 33.4084 77.0343 33.161 77.2615 32.9787C77.4912 32.7964 77.7433 32.6662 78.0179 32.5881C78.2949 32.5099 78.5719 32.4709 78.8489 32.4709C79.0407 32.4709 79.2502 32.4957 79.4775 32.5455C79.7047 32.5928 79.9202 32.6828 80.1238 32.8153C80.3274 32.9455 80.4954 33.1349 80.628 33.3835C80.7606 33.6297 80.8269 33.9529 80.8269 34.353V38H80.0882V37.201H80.0492C79.9829 37.3407 79.8787 37.4815 79.7367 37.6236C79.597 37.7656 79.4159 37.8852 79.1934 37.9822C78.9708 38.0769 78.7045 38.1243 78.3944 38.1243ZM78.5009 37.4602C78.8347 37.4602 79.12 37.3904 79.3567 37.2507C79.5958 37.111 79.7769 36.9276 79.9 36.7003C80.0255 36.473 80.0882 36.228 80.0882 35.9652V35.1911C80.048 35.2337 79.9699 35.2727 79.8539 35.3082C79.7402 35.3437 79.6088 35.3745 79.4597 35.4006C79.3105 35.4242 79.1638 35.4455 79.0194 35.4645C78.8749 35.4834 78.753 35.4988 78.6536 35.5107C78.3908 35.5438 78.1576 35.5971 77.954 35.6705C77.7504 35.7415 77.5906 35.8433 77.4746 35.9759C77.361 36.1084 77.3042 36.2824 77.3042 36.4979C77.3042 36.8104 77.4166 37.0495 77.6415 37.2152C77.8688 37.3786 78.1552 37.4602 78.5009 37.4602ZM78.5648 31.7962L79.4526 30.1697H80.3155L79.2182 31.7962H78.5648ZM82.424 38V32.5455H83.1378V33.3764H83.1911C83.2952 33.1042 83.4799 32.884 83.745 32.7159C84.0102 32.5478 84.3108 32.4638 84.647 32.4638C84.7015 32.4638 84.7678 32.465 84.8459 32.4673C84.9264 32.4673 84.9879 32.4697 85.0305 32.4744V33.2237C85.0021 33.2166 84.9453 33.2071 84.8601 33.1953C84.7749 33.1811 84.6837 33.174 84.5866 33.174C84.312 33.174 84.067 33.232 83.8516 33.348C83.6385 33.4616 83.4704 33.6203 83.3473 33.8239C83.2242 34.0251 83.1626 34.2547 83.1626 34.5128V38H82.424ZM89.5183 35.8445V32.5455H90.2569V38H89.5183V37.0874H89.4686C89.3407 37.3643 89.1395 37.5975 88.8649 37.7869C88.5926 37.9763 88.2529 38.071 87.8457 38.071C87.5001 38.071 87.1935 37.9953 86.926 37.8438C86.6584 37.6922 86.4477 37.4661 86.2939 37.1655C86.1423 36.8648 86.0666 36.4908 86.0666 36.0433V32.5455H86.8052V35.9972C86.8052 36.4091 86.9236 36.7393 87.1603 36.9879C87.3971 37.2341 87.7001 37.3572 88.0694 37.3572C88.2967 37.3572 88.5216 37.3016 88.7441 37.1903C88.9667 37.0791 89.1513 36.911 89.2981 36.6861C89.4449 36.4612 89.5183 36.1806 89.5183 35.8445ZM92.5962 34.6548V38H91.8576V30.7273H92.5962V33.4013H92.6602C92.788 33.1196 92.9833 32.8946 93.2461 32.7266C93.5089 32.5585 93.8498 32.4744 94.2688 32.4744C94.6381 32.4744 94.9625 32.5502 95.2418 32.7017C95.5212 32.8509 95.739 33.0758 95.8952 33.3764C96.0515 33.6747 96.1296 34.05 96.1296 34.5021V38H95.3945V34.5483C95.3945 34.1056 95.275 33.7599 95.0359 33.5114C94.7991 33.2628 94.476 33.1385 94.0664 33.1385C93.7847 33.1385 93.5326 33.1989 93.31 33.3196C93.0875 33.4403 92.9123 33.6143 92.7844 33.8416C92.659 34.0665 92.5962 34.3376 92.5962 34.6548ZM99.2928 38.1243C98.9542 38.1243 98.6465 38.0604 98.3695 37.9325C98.0949 37.8023 97.8747 37.6129 97.709 37.3643C97.5456 37.1158 97.464 36.8151 97.464 36.4624C97.464 36.1712 97.5196 35.9309 97.6309 35.7415C97.7445 35.5521 97.8996 35.4006 98.0961 35.2869C98.2926 35.1709 98.5175 35.0821 98.7708 35.0206C99.0241 34.959 99.2916 34.9093 99.5733 34.8714C99.8906 34.8312 100.153 34.7992 100.362 34.7756C100.572 34.7495 100.729 34.7081 100.83 34.6513C100.935 34.5921 100.987 34.495 100.987 34.3601V34.282C100.987 33.9197 100.884 33.6368 100.678 33.4332C100.472 33.2273 100.17 33.1243 99.7722 33.1243C99.3745 33.1243 99.056 33.2119 98.8169 33.3871C98.5802 33.5599 98.4145 33.7552 98.3198 33.973L97.6202 33.7209C97.7528 33.4084 97.9327 33.161 98.16 32.9787C98.3896 32.7964 98.6417 32.6662 98.9164 32.5881C99.1934 32.5099 99.4703 32.4709 99.7473 32.4709C99.9391 32.4709 100.149 32.4957 100.376 32.5455C100.603 32.5928 100.819 32.6828 101.022 32.8153C101.226 32.9455 101.394 33.1349 101.526 33.3835C101.659 33.6297 101.725 33.9529 101.725 34.353V38H100.987V37.201H100.948C100.881 37.3407 100.777 37.4815 100.635 37.6236C100.495 37.7656 100.314 37.8852 100.092 37.9822C99.8693 38.0769 99.6029 38.1243 99.2928 38.1243ZM99.3993 37.4602C99.7331 37.4602 100.018 37.3904 100.255 37.2507C100.494 37.111 100.675 36.9276 100.798 36.7003C100.924 36.473 100.987 36.228 100.987 35.9652V35.1911C100.946 35.2337 100.868 35.2727 100.752 35.3082C100.639 35.3437 100.507 35.3745 100.358 35.4006C100.209 35.4242 100.062 35.4455 99.9178 35.4645C99.7734 35.4834 99.6515 35.4988 99.552 35.5107C99.2892 35.5438 99.056 35.5971 98.8525 35.6705C98.6489 35.7415 98.4891 35.8433 98.373 35.9759C98.2594 36.1084 98.2026 36.2824 98.2026 36.4979C98.2026 36.8104 98.315 37.0495 98.54 37.2152C98.7672 37.3786 99.0537 37.4602 99.3993 37.4602ZM99.4632 31.7962L100.351 30.1697H101.214L100.117 31.7962H99.4632ZM103.159 38V37.4283L106.284 33.2876V33.2344H103.28V32.5455H107.232V33.1385L104.178 37.2578V37.3111H107.339V38H103.159Z" fill="white"/>
    <path d="M24 45C21.4 42.7 18.5583 40.9333 15.475 39.7C12.3917 38.4667 9.23333 37.85 6 37.85V16.4C9.13333 16.4 12.2417 17.1167 15.325 18.55C18.4083 19.9833 21.3 21.9833 24 24.55C26.7 21.9833 29.5917 19.9833 32.675 18.55C35.7583 17.1167 38.8667 16.4 42 16.4V37.85C38.7667 37.85 35.6083 38.4667 32.525 39.7C29.4417 40.9333 26.6 42.7 24 45ZM24 41.15C26.3667 39.45 28.8083 38.0917 31.325 37.075C33.8417 36.0583 36.4 35.4167 39 35.15V19.65C36.7333 20.0167 34.3417 20.925 31.825 22.375C29.3083 23.825 26.7 25.8333 24 28.4C21.0667 25.7 18.4 23.65 16 22.25C13.6 20.85 11.2667 19.9833 9 19.65V35.15C11.6 35.4167 14.1583 36.0583 16.675 37.075C19.1917 38.0917 21.6333 39.45 24 41.15ZM24.15 17.4C21.9833 17.4 20.1583 16.6583 18.675 15.175C17.1917 13.6917 16.45 11.8667 16.45 9.7C16.45 7.53333 17.1917 5.70833 18.675 4.225C20.1583 2.74167 21.9833 2 24.15 2C26.3167 2 28.1417 2.74167 29.625 4.225C31.1083 5.70833 31.85 7.53333 31.85 9.7C31.85 11.8667 31.1083 13.6917 29.625 15.175C28.1417 16.6583 26.3167 17.4 24.15 17.4ZM24.158 14.4C25.4527 14.4 26.5583 13.939 27.475 13.017C28.3917 12.095 28.85 10.9867 28.85 9.692C28.85 8.39733 28.389 7.29167 27.467 6.375C26.545 5.45833 25.4367 5 24.142 5C22.8473 5 21.7417 5.461 20.825 6.383C19.9083 7.305 19.45 8.41333 19.45 9.708C19.45 11.0027 19.911 12.1083 20.833 13.025C21.755 13.9417 22.8633 14.4 24.158 14.4Z" fill="white"/>
</svg>
