<svg width="122" height="48" viewBox="0 0 122 48" fill="none" xmlns="http://www.w3.org/2000/svg">
    <path d="M49.2642 26V11.4545H55.0881C56.1581 11.4545 57.0507 11.6132 57.7656 11.9304C58.4806 12.2476 59.018 12.688 59.3778 13.2514C59.7377 13.8101 59.9176 14.4541 59.9176 15.1832C59.9176 15.7514 59.804 16.2509 59.5767 16.6818C59.3494 17.108 59.0369 17.4583 58.6392 17.733C58.2462 18.0028 57.7964 18.1946 57.2898 18.3082V18.4503C57.8438 18.474 58.3622 18.6302 58.8452 18.919C59.3329 19.2079 59.7282 19.6127 60.0312 20.1335C60.3343 20.6496 60.4858 21.2652 60.4858 21.9801C60.4858 22.7519 60.294 23.4408 59.9105 24.0469C59.5317 24.6482 58.9706 25.1241 58.2273 25.4744C57.4839 25.8248 56.5677 26 55.4787 26H49.2642ZM52.3395 23.4858H54.8466C55.7036 23.4858 56.3286 23.3224 56.7216 22.9957C57.1146 22.6643 57.3111 22.224 57.3111 21.6747C57.3111 21.2723 57.214 20.9171 57.0199 20.6094C56.8258 20.3016 56.5488 20.0601 56.1889 19.8849C55.8338 19.7098 55.41 19.6222 54.9176 19.6222H52.3395V23.4858ZM52.3395 17.5412H54.6193C55.0407 17.5412 55.4148 17.4678 55.7415 17.321C56.0729 17.1695 56.3333 16.9564 56.5227 16.6818C56.7169 16.4072 56.8139 16.0781 56.8139 15.6946C56.8139 15.169 56.6269 14.7453 56.2528 14.4233C55.8835 14.1013 55.358 13.9403 54.6761 13.9403H52.3395V17.5412ZM67.359 26.2131C66.2558 26.2131 65.3017 25.9787 64.4968 25.5099C63.6966 25.0365 63.0787 24.3783 62.6431 23.5355C62.2075 22.688 61.9897 21.7055 61.9897 20.5881C61.9897 19.4612 62.2075 18.4763 62.6431 17.6335C63.0787 16.786 63.6966 16.1278 64.4968 15.6591C65.3017 15.1856 66.2558 14.9489 67.359 14.9489C68.4622 14.9489 69.4139 15.1856 70.2141 15.6591C71.0191 16.1278 71.6393 16.786 72.0749 17.6335C72.5105 18.4763 72.7283 19.4612 72.7283 20.5881C72.7283 21.7055 72.5105 22.688 72.0749 23.5355C71.6393 24.3783 71.0191 25.0365 70.2141 25.5099C69.4139 25.9787 68.4622 26.2131 67.359 26.2131ZM67.3732 23.8693C67.8751 23.8693 68.2942 23.7273 68.6303 23.4432C68.9665 23.1544 69.2198 22.7614 69.3903 22.2642C69.5655 21.767 69.6531 21.2012 69.6531 20.5668C69.6531 19.9323 69.5655 19.3665 69.3903 18.8693C69.2198 18.3722 68.9665 17.9792 68.6303 17.6903C68.2942 17.4015 67.8751 17.2571 67.3732 17.2571C66.8666 17.2571 66.4405 17.4015 66.0948 17.6903C65.7539 17.9792 65.4959 18.3722 65.3207 18.8693C65.1502 19.3665 65.065 19.9323 65.065 20.5668C65.065 21.2012 65.1502 21.767 65.3207 22.2642C65.4959 22.7614 65.7539 23.1544 66.0948 23.4432C66.4405 23.7273 66.8666 23.8693 67.3732 23.8693ZM79.6246 26.2131C78.5214 26.2131 77.5674 25.9787 76.7624 25.5099C75.9622 25.0365 75.3443 24.3783 74.9087 23.5355C74.4731 22.688 74.2553 21.7055 74.2553 20.5881C74.2553 19.4612 74.4731 18.4763 74.9087 17.6335C75.3443 16.786 75.9622 16.1278 76.7624 15.6591C77.5674 15.1856 78.5214 14.9489 79.6246 14.9489C80.7279 14.9489 81.6796 15.1856 82.4798 15.6591C83.2847 16.1278 83.9049 16.786 84.3406 17.6335C84.7762 18.4763 84.994 19.4612 84.994 20.5881C84.994 21.7055 84.7762 22.688 84.3406 23.5355C83.9049 24.3783 83.2847 25.0365 82.4798 25.5099C81.6796 25.9787 80.7279 26.2131 79.6246 26.2131ZM79.6388 23.8693C80.1407 23.8693 80.5598 23.7273 80.896 23.4432C81.2321 23.1544 81.4854 22.7614 81.6559 22.2642C81.8311 21.767 81.9187 21.2012 81.9187 20.5668C81.9187 19.9323 81.8311 19.3665 81.6559 18.8693C81.4854 18.3722 81.2321 17.9792 80.896 17.6903C80.5598 17.4015 80.1407 17.2571 79.6388 17.2571C79.1322 17.2571 78.7061 17.4015 78.3604 17.6903C78.0195 17.9792 77.7615 18.3722 77.5863 18.8693C77.4158 19.3665 77.3306 19.9323 77.3306 20.5668C77.3306 21.2012 77.4158 21.767 77.5863 22.2642C77.7615 22.7614 78.0195 23.1544 78.3604 23.4432C78.7061 23.7273 79.1322 23.8693 79.6388 23.8693ZM89.7028 22.8608L89.7099 19.2315H90.1502L93.6445 15.0909H97.1175L92.4229 20.5739H91.7056L89.7028 22.8608ZM86.9613 26V11.4545H89.9869V26H86.9613ZM93.7795 26L90.5692 21.2486L92.5863 19.1108L97.3235 26H93.7795ZM101.627 11.4545V26H98.6019V11.4545H101.627ZM109.023 26.2131C107.901 26.2131 106.935 25.9858 106.125 25.5312C105.32 25.072 104.7 24.4233 104.264 23.5852C103.829 22.7424 103.611 21.7457 103.611 20.5952C103.611 19.473 103.829 18.4882 104.264 17.6406C104.7 16.7931 105.313 16.1326 106.104 15.6591C106.899 15.1856 107.832 14.9489 108.902 14.9489C109.622 14.9489 110.292 15.0649 110.912 15.2969C111.537 15.5241 112.081 15.8674 112.545 16.3267C113.014 16.786 113.379 17.3636 113.639 18.0597C113.9 18.7509 114.03 19.5606 114.03 20.4886V21.3196H104.818V19.4446H111.182C111.182 19.009 111.087 18.6231 110.898 18.2869C110.708 17.9508 110.446 17.688 110.109 17.4986C109.778 17.3045 109.392 17.2074 108.952 17.2074C108.492 17.2074 108.085 17.3139 107.73 17.527C107.38 17.7353 107.105 18.017 106.906 18.3722C106.707 18.7225 106.606 19.1132 106.601 19.544V21.3267C106.601 21.8665 106.7 22.3329 106.899 22.7259C107.103 23.1188 107.389 23.4219 107.759 23.6349C108.128 23.848 108.566 23.9545 109.072 23.9545C109.409 23.9545 109.716 23.9072 109.996 23.8125C110.275 23.7178 110.514 23.5758 110.713 23.3864C110.912 23.197 111.063 22.965 111.168 22.6903L113.966 22.875C113.824 23.5473 113.533 24.1345 113.092 24.6364C112.657 25.1335 112.093 25.5218 111.402 25.8011C110.715 26.0758 109.922 26.2131 109.023 26.2131ZM121.807 15.0909V17.3636H115.237V15.0909H121.807ZM116.729 12.4773H119.754V22.6477C119.754 22.9271 119.797 23.1449 119.882 23.3011C119.967 23.4527 120.086 23.5592 120.237 23.6207C120.393 23.6823 120.573 23.7131 120.777 23.7131C120.919 23.7131 121.061 23.7012 121.203 23.6776C121.345 23.6491 121.454 23.6278 121.53 23.6136L122.006 25.8651C121.854 25.9124 121.641 25.9669 121.366 26.0284C121.092 26.0947 120.758 26.1349 120.365 26.1491C119.636 26.1776 118.997 26.0805 118.447 25.858C117.903 25.6354 117.479 25.2898 117.176 24.821C116.873 24.3523 116.724 23.7604 116.729 23.0455V12.4773ZM49.4233 38V30.7273H50.1584V33.5007H50.2223C50.291 33.3705 50.3857 33.2261 50.5064 33.0675C50.6271 32.9065 50.794 32.7668 51.0071 32.6484C51.2225 32.5301 51.5019 32.4709 51.8452 32.4709C52.2997 32.4709 52.6986 32.5881 53.0419 32.8224C53.3875 33.0545 53.6562 33.3823 53.848 33.8061C54.0398 34.2275 54.1357 34.7211 54.1357 35.2869C54.1357 35.8575 54.0398 36.3546 53.848 36.7784C53.6562 37.2022 53.3887 37.5312 53.0455 37.7656C52.7045 37.9976 52.308 38.1136 51.8558 38.1136C51.5149 38.1136 51.2367 38.0545 51.0213 37.9361C50.8059 37.8177 50.6354 37.678 50.5099 37.517C50.3868 37.3537 50.291 37.2057 50.2223 37.0732H50.1371V38H49.4233ZM50.1477 35.2763C50.1477 35.7 50.2105 36.0753 50.3359 36.402C50.4614 36.7287 50.6437 36.9856 50.8828 37.1726C51.1243 37.3572 51.4179 37.4496 51.7635 37.4496C52.1186 37.4496 52.4181 37.3537 52.6619 37.1619C52.9058 36.9678 53.0893 36.7062 53.2124 36.3771C53.3378 36.0481 53.4006 35.6811 53.4006 35.2763C53.4006 34.8738 53.339 34.5116 53.2159 34.1896C53.0928 33.8653 52.9093 33.6096 52.6655 33.4226C52.424 33.2332 52.1233 33.1385 51.7635 33.1385C51.4155 33.1385 51.1207 33.2296 50.8793 33.4119C50.6402 33.5919 50.4579 33.8428 50.3324 34.1648C50.2093 34.4844 50.1477 34.8549 50.1477 35.2763ZM57.6406 38.1136C57.16 38.1136 56.7363 37.9953 56.3693 37.7585C56.0047 37.5218 55.7195 37.1927 55.5135 36.7713C55.3075 36.3475 55.2045 35.8563 55.2045 35.2976C55.2045 34.7365 55.3075 34.2441 55.5135 33.8203C55.7195 33.3942 56.0047 33.0627 56.3693 32.826C56.7363 32.5893 57.16 32.4709 57.6406 32.4709C58.1212 32.4709 58.5438 32.5893 58.9084 32.826C59.2753 33.0627 59.5618 33.3942 59.7678 33.8203C59.9737 34.2441 60.0767 34.7365 60.0767 35.2976C60.0767 35.8563 59.9737 36.3475 59.7678 36.7713C59.5618 37.1927 59.2753 37.5218 58.9084 37.7585C58.5438 37.9953 58.1212 38.1136 57.6406 38.1136ZM57.6406 37.4496C58.017 37.4496 58.3307 37.3513 58.5817 37.1548C58.835 36.956 59.0244 36.6932 59.1499 36.3665C59.2777 36.0398 59.3416 35.6835 59.3416 35.2976C59.3416 34.9117 59.2777 34.5554 59.1499 34.2287C59.0244 33.8996 58.835 33.6357 58.5817 33.4368C58.3307 33.2379 58.017 33.1385 57.6406 33.1385C57.2642 33.1385 56.9493 33.2379 56.696 33.4368C56.4451 33.6357 56.2557 33.8996 56.1278 34.2287C56.0024 34.5554 55.9396 34.9117 55.9396 35.2976C55.9396 35.6835 56.0024 36.0398 56.1278 36.3665C56.2557 36.6932 56.4451 36.956 56.696 37.1548C56.9493 37.3513 57.2642 37.4496 57.6406 37.4496ZM63.5781 38.1136C63.0975 38.1136 62.6738 37.9953 62.3068 37.7585C61.9422 37.5218 61.657 37.1927 61.451 36.7713C61.245 36.3475 61.142 35.8563 61.142 35.2976C61.142 34.7365 61.245 34.2441 61.451 33.8203C61.657 33.3942 61.9422 33.0627 62.3068 32.826C62.6738 32.5893 63.0975 32.4709 63.5781 32.4709C64.0587 32.4709 64.4813 32.5893 64.8459 32.826C65.2128 33.0627 65.4993 33.3942 65.7053 33.8203C65.9112 34.2441 66.0142 34.7365 66.0142 35.2976C66.0142 35.8563 65.9112 36.3475 65.7053 36.7713C65.4993 37.1927 65.2128 37.5218 64.8459 37.7585C64.4813 37.9953 64.0587 38.1136 63.5781 38.1136ZM63.5781 37.4496C63.9545 37.4496 64.2682 37.3513 64.5192 37.1548C64.7725 36.956 64.9619 36.6932 65.0874 36.3665C65.2152 36.0398 65.2791 35.6835 65.2791 35.2976C65.2791 34.9117 65.2152 34.5554 65.0874 34.2287C64.9619 33.8996 64.7725 33.6357 64.5192 33.4368C64.2682 33.2379 63.9545 33.1385 63.5781 33.1385C63.2017 33.1385 62.8868 33.2379 62.6335 33.4368C62.3826 33.6357 62.1932 33.8996 62.0653 34.2287C61.9399 34.5554 61.8771 34.9117 61.8771 35.2976C61.8771 35.6835 61.9399 36.0398 62.0653 36.3665C62.1932 36.6932 62.3826 36.956 62.6335 37.1548C62.8868 37.3513 63.2017 37.4496 63.5781 37.4496ZM68.0277 35.9759L68.0135 35.0419H68.1697L70.6413 32.5455H71.5611L69.0291 35.0952L68.9652 35.0987L68.0277 35.9759ZM67.3459 38V30.7273H68.0845V38H67.3459ZM70.7798 38L68.6065 35.2479L69.1321 34.7401L71.7173 38H70.7798ZM76.4519 33.7564L75.7878 33.9411C75.7357 33.7966 75.66 33.6617 75.5605 33.5362C75.4635 33.4107 75.3345 33.3089 75.1735 33.2308C75.0125 33.1527 74.8089 33.1136 74.5627 33.1136C74.2123 33.1136 73.9223 33.1965 73.6926 33.3622C73.463 33.5256 73.3482 33.7351 73.3482 33.9908C73.3482 34.2109 73.4263 34.3885 73.5826 34.5234C73.7412 34.656 73.985 34.7625 74.3141 34.843L75.1309 35.0455C75.6043 35.1615 75.9583 35.3402 76.1926 35.5817C76.427 35.8232 76.5442 36.1309 76.5442 36.505C76.5442 36.8151 76.4566 37.0921 76.2814 37.3359C76.1062 37.5774 75.8624 37.768 75.5499 37.9077C75.2398 38.045 74.8775 38.1136 74.4632 38.1136C73.9187 38.1136 73.4689 37.9941 73.1138 37.755C72.7587 37.5135 72.5338 37.1631 72.4391 36.7038L73.1387 36.5263C73.2144 36.8364 73.3624 37.0696 73.5826 37.2259C73.8051 37.3821 74.0951 37.4602 74.4526 37.4602C74.8574 37.4602 75.1806 37.3714 75.4221 37.1939C75.6635 37.0163 75.7843 36.7985 75.7843 36.5405C75.7843 36.3345 75.7144 36.1617 75.5748 36.022C75.4351 35.8823 75.2208 35.7782 74.932 35.7095L74.0336 35.4964C73.5482 35.3804 73.1896 35.1993 72.9576 34.9531C72.7279 34.7045 72.6131 34.3956 72.6131 34.0263C72.6131 33.7209 72.6971 33.4522 72.8652 33.2202C73.0357 32.9858 73.2677 32.8023 73.5613 32.6697C73.8548 32.5372 74.1886 32.4709 74.5627 32.4709C75.0835 32.4709 75.4954 32.5869 75.7985 32.8189C76.1039 33.0509 76.3217 33.3634 76.4519 33.7564ZM80.1255 32.5455V33.174H77.4089V32.5455H80.1255ZM78.2292 31.2386H78.9643V36.505C78.9643 36.7393 79.001 36.9181 79.0744 37.0412C79.1502 37.1643 79.246 37.2495 79.362 37.2969C79.4804 37.3419 79.6059 37.3643 79.7385 37.3643C79.8284 37.3643 79.9018 37.3596 79.9586 37.3501C80.0178 37.3383 80.0675 37.3265 80.1078 37.3146L80.264 37.9787C80.2048 38 80.1267 38.0213 80.0297 38.0426C79.9326 38.0639 79.8118 38.0746 79.6674 38.0746C79.4331 38.0746 79.2058 38.0237 78.9856 37.9219C78.7654 37.8201 78.5843 37.6674 78.4423 37.4638C78.3002 37.2578 78.2292 37.0021 78.2292 36.6967V31.2386ZM83.5879 38.1136C83.1073 38.1136 82.6835 37.9953 82.3166 37.7585C81.952 37.5218 81.6667 37.1927 81.4608 36.7713C81.2548 36.3475 81.1518 35.8563 81.1518 35.2976C81.1518 34.7365 81.2548 34.2441 81.4608 33.8203C81.6667 33.3942 81.952 33.0627 82.3166 32.826C82.6835 32.5893 83.1073 32.4709 83.5879 32.4709C84.0685 32.4709 84.4911 32.5893 84.8556 32.826C85.2226 33.0627 85.5091 33.3942 85.715 33.8203C85.921 34.2441 86.024 34.7365 86.024 35.2976C86.024 35.8563 85.921 36.3475 85.715 36.7713C85.5091 37.1927 85.2226 37.5218 84.8556 37.7585C84.4911 37.9953 84.0685 38.1136 83.5879 38.1136ZM83.5879 37.4496C83.9643 37.4496 84.278 37.3513 84.5289 37.1548C84.7823 36.956 84.9717 36.6932 85.0971 36.3665C85.225 36.0398 85.2889 35.6835 85.2889 35.2976C85.2889 34.9117 85.225 34.5554 85.0971 34.2287C84.9717 33.8996 84.7823 33.6357 84.5289 33.4368C84.278 33.2379 83.9643 33.1385 83.5879 33.1385C83.2115 33.1385 82.8966 33.2379 82.6433 33.4368C82.3923 33.6357 82.2029 33.8996 82.0751 34.2287C81.9496 34.5554 81.8869 34.9117 81.8869 35.2976C81.8869 35.6835 81.9496 36.0398 82.0751 36.3665C82.2029 36.6932 82.3923 36.956 82.6433 37.1548C82.8966 37.3513 83.2115 37.4496 83.5879 37.4496ZM87.3556 38V32.5455H88.0694V33.3764H88.1227C88.2269 33.1042 88.4115 32.884 88.6767 32.7159C88.9418 32.5478 89.2425 32.4638 89.5787 32.4638C89.6331 32.4638 89.6994 32.465 89.7775 32.4673C89.858 32.4673 89.9196 32.4697 89.9622 32.4744V33.2237C89.9338 33.2166 89.877 33.2071 89.7917 33.1953C89.7065 33.1811 89.6154 33.174 89.5183 33.174C89.2437 33.174 88.9986 33.232 88.7832 33.348C88.5701 33.4616 88.402 33.6203 88.2789 33.8239C88.1558 34.0251 88.0943 34.2547 88.0943 34.5128V38H87.3556ZM93.0801 38.1136C92.564 38.1136 92.1177 37.9964 91.7413 37.7621C91.3649 37.5253 91.0749 37.1963 90.8713 36.7749C90.6677 36.3535 90.5659 35.8658 90.5659 35.3118C90.5659 34.7554 90.6677 34.2642 90.8713 33.8381C91.0749 33.4119 91.3578 33.0781 91.72 32.8366C92.0846 32.5928 92.5083 32.4709 92.9913 32.4709C93.2801 32.4709 93.5618 32.5218 93.8365 32.6236C94.1135 32.7254 94.3632 32.8852 94.5858 33.103C94.8083 33.3184 94.9847 33.5978 95.1149 33.9411C95.2475 34.282 95.3137 34.6939 95.3137 35.1768V35.5107H91.0808V34.8679H94.568C94.568 34.5388 94.5017 34.2441 94.3691 33.9837C94.2389 33.7232 94.0543 33.5173 93.8152 33.3658C93.5784 33.2143 93.3038 33.1385 92.9913 33.1385C92.6504 33.1385 92.3533 33.2261 92.1 33.4013C91.8467 33.5741 91.6502 33.8026 91.5105 34.0866C91.3732 34.3684 91.3033 34.675 91.301 35.0064V35.4112C91.301 35.835 91.3743 36.1996 91.5211 36.505C91.6703 36.808 91.8774 37.0412 92.1426 37.2045C92.4101 37.3679 92.7226 37.4496 93.0801 37.4496C93.3192 37.4496 93.5323 37.4141 93.7193 37.343C93.9063 37.2696 94.0649 37.1679 94.1951 37.0376C94.3277 36.9051 94.4295 36.7512 94.5005 36.576L95.2072 36.7855C95.122 37.0365 94.9823 37.2625 94.7882 37.4638C94.594 37.665 94.3526 37.8236 94.0637 37.9396C93.7749 38.0556 93.447 38.1136 93.0801 38.1136Z" fill="black"/>
    <path d="M24 45C21.4 42.7 18.5583 40.9333 15.475 39.7C12.3917 38.4667 9.23333 37.85 6 37.85V16.4C9.13333 16.4 12.2417 17.1167 15.325 18.55C18.4083 19.9833 21.3 21.9833 24 24.55C26.7 21.9833 29.5917 19.9833 32.675 18.55C35.7583 17.1167 38.8667 16.4 42 16.4V37.85C38.7667 37.85 35.6083 38.4667 32.525 39.7C29.4417 40.9333 26.6 42.7 24 45ZM24 41.15C26.3667 39.45 28.8083 38.0917 31.325 37.075C33.8417 36.0583 36.4 35.4167 39 35.15V19.65C36.7333 20.0167 34.3417 20.925 31.825 22.375C29.3083 23.825 26.7 25.8333 24 28.4C21.0667 25.7 18.4 23.65 16 22.25C13.6 20.85 11.2667 19.9833 9 19.65V35.15C11.6 35.4167 14.1583 36.0583 16.675 37.075C19.1917 38.0917 21.6333 39.45 24 41.15ZM24.15 17.4C21.9833 17.4 20.1583 16.6583 18.675 15.175C17.1917 13.6917 16.45 11.8667 16.45 9.7C16.45 7.53333 17.1917 5.70833 18.675 4.225C20.1583 2.74167 21.9833 2 24.15 2C26.3167 2 28.1417 2.74167 29.625 4.225C31.1083 5.70833 31.85 7.53333 31.85 9.7C31.85 11.8667 31.1083 13.6917 29.625 15.175C28.1417 16.6583 26.3167 17.4 24.15 17.4ZM24.158 14.4C25.4527 14.4 26.5583 13.939 27.475 13.017C28.3917 12.095 28.85 10.9867 28.85 9.692C28.85 8.39733 28.389 7.29167 27.467 6.375C26.545 5.45833 25.4367 5 24.142 5C22.8473 5 21.7417 5.461 20.825 6.383C19.9083 7.305 19.45 8.41333 19.45 9.708C19.45 11.0027 19.911 12.1083 20.833 13.025C21.755 13.9417 22.8633 14.4 24.158 14.4Z" fill="black"/>
</svg>
